<svg width="168" height="28" viewBox="0 0 168 28" fill="none" xmlns="http://www.w3.org/2000/svg" class="text-white"><path d="M84.1957 6.09947L83.689 7.85857C83.1747 7.28915 82.5631 6.81996 81.851 6.45245C80.8438 5.93387 79.6661 5.67386 78.3226 5.67386C76.7996 5.67386 75.4469 6.01667 74.2601 6.7023C73.0749 7.38793 72.1543 8.32631 71.5031 9.51744C70.8504 10.71 70.5248 12.0377 70.5248 13.5005C70.5248 14.9632 70.8549 16.2604 71.5183 17.4428C72.1802 18.6252 73.1053 19.5549 74.2906 20.2304C75.4773 20.9058 76.8209 21.2443 78.3226 21.2443C79.5276 21.2443 80.576 21.0467 81.4661 20.6502C81.6882 20.5514 81.9012 20.4425 82.1066 20.3262C83.1245 19.7481 83.9461 19 84.4893 18.3754L85.1938 20.8216L88.704 20.8201L87.1003 15.245V6.09947H84.1957ZM83.1899 15.9612C83.1762 15.9859 83.161 16.0091 83.1473 16.0324C82.735 16.7325 82.1705 17.2772 81.4509 17.668C80.7099 18.0704 79.8745 18.2708 78.9449 18.2708C78.0153 18.2708 77.1252 18.0704 76.3948 17.668C75.663 17.2656 75.0894 16.7006 74.6755 15.9699C74.2601 15.2407 74.0532 14.4171 74.0532 13.5005C74.0532 12.5839 74.2601 11.7283 74.6755 10.9889C75.0909 10.251 75.6645 9.66996 76.3948 9.24871C77.1252 8.82746 77.9757 8.61683 78.9449 8.61683C79.9141 8.61683 80.7099 8.8231 81.4509 9.23418C82.1918 9.64527 82.77 10.2249 83.1854 10.9744C83.6008 11.7239 83.8077 12.565 83.8077 13.5005C83.8077 14.4359 83.6023 15.2334 83.1899 15.9597V15.9612ZM126.369 3.51384H130.047V0H126.369V3.51384ZM126.517 20.8187H129.927V6.09947H126.517V20.8201V20.8187ZM162.601 17.4646C161.83 17.9832 160.96 18.2432 159.992 18.2432C158.548 18.2432 157.398 17.8176 156.538 16.9664C155.678 16.1152 155.248 14.9502 155.248 13.4729C155.248 12.4822 155.446 11.6252 155.841 10.9061C156.237 10.1856 156.791 9.62929 157.501 9.23564C158.213 8.84343 159.042 8.64588 159.992 8.64588C161.79 8.64588 163.347 9.29519 164.287 11.3622L167.28 10.219C166.767 8.6851 165.684 7.58403 164.38 6.81996C163.074 6.05589 161.612 5.67386 159.992 5.67386C158.371 5.67386 156.991 6.00796 155.736 6.67325C154.481 7.33999 153.498 8.26385 152.786 9.44626C152.074 10.6287 151.718 11.9709 151.718 13.4729C151.718 14.9749 152.063 16.3447 152.756 17.5271C153.448 18.7095 154.42 19.6246 155.677 20.2725C156.932 20.9204 158.37 21.2443 159.992 21.2443C161.614 21.2443 163.053 20.8492 164.336 20.0982C165.638 19.3341 166.696 18.2127 167.23 16.7151L164.261 15.5806C163.867 16.3461 163.373 16.9446 162.601 17.4646ZM102.967 7.75834C99.8704 4.30406 93.2259 5.33976 91.1658 9.34313C87.5248 16.1021 94.5527 23.4043 101.692 19.4881C101.692 19.4881 102.256 19.1467 102.967 18.5526V20.2623C103.353 25.3886 94.6166 26.1047 93.2122 21.3009L90.2179 22.4441C90.8113 23.8212 92.4758 27.4759 98.1055 27.4759C105.524 27.4759 106.378 22.5923 106.378 20.4236V6.09947H103.444L102.967 7.75834ZM102.492 15.4324C99.1036 20.3277 91.4503 16.2691 94.3382 10.8146C95.4732 8.6299 98.7293 8.03579 100.861 9.18044C103.069 10.3149 103.686 13.3988 102.492 15.431V15.4324ZM120.954 6.40597C120.095 5.9179 119.042 5.67386 117.797 5.67386C116.828 5.67386 116.023 5.80169 115.381 6.05589C114.842 6.26943 114.371 6.55995 113.964 6.926C113.964 6.926 113.432 7.38212 112.905 7.97914L112.364 6.09947H109.494V20.8201H112.904V13.0051C112.904 12.106 113.056 11.3332 113.363 10.6868C113.669 10.0404 114.119 9.54359 114.713 9.19642C115.306 8.84925 116.008 8.67638 116.819 8.67638C117.945 8.67638 118.78 8.99015 119.325 9.61767C119.868 10.2452 120.14 11.2155 120.14 12.5272V20.8201H123.55V11.8677C123.55 10.5735 123.332 9.46079 122.897 8.53258C122.462 7.60437 121.815 6.8955 120.954 6.40742V6.40597ZM145.353 3.51384H149.029V0H145.353V3.51384ZM138.548 3.79274C138.548 2.97638 139.193 2.77592 139.613 2.77592H142.491L143.289 0.0014526H138.942C136.84 0.0014526 135.138 1.62691 135.138 3.63295V6.09947H132.35V8.87394H135.138V20.8201H138.548V8.87394H145.502V20.8201H148.912V6.09947H138.548V3.79274ZM18.0474 0L15.0394 7.17875L12.0328 0H6.01674L0.000637226 20.8187C-0.0800035 20.8187 7.52001 20.8187 7.52001 20.8187L15.0394 11.4857L22.5587 20.8187C22.5587 20.8187 30.1588 20.8187 30.0781 20.8187L24.0635 0H18.0474ZM62.3998 0L56.653 12.6478L50.8454 0H45.1169V20.8187H48.5859V3.42378L56.6515 20.9262L64.6578 3.42378V20.8201H68.1269V0H62.3983H62.3998Z" fill="currentColor"></path></svg>