<svg xmlns="http://www.w3.org/2000/svg" width="16" height="16" viewBox="0 0 14 14" aria-hidden="true" class="$w-[1em] $h-[1em] $fill-current $text-lg size-3.5"><g fill="currentColor" clip-path="url(#microphone_svg__a)"><path d="M7 11.667A4.67 4.67 0 0 0 11.668 7V4.667a4.666 4.666 0 1 0-9.333 0V7a4.67 4.67 0 0 0 4.667 4.667m0-10.5a3.5 3.5 0 0 1 3.448 2.916H8.751a.583.583 0 0 0 0 1.167h1.75v1.167H8.75a.583.583 0 0 0 0 1.166h1.697a3.497 3.497 0 0 1-6.895 0h1.698a.583.583 0 1 0 0-1.166H3.5V5.25h1.75a.583.583 0 0 0 0-1.167H3.553a3.5 3.5 0 0 1 3.448-2.916"></path><path d="M13.417 7a.583.583 0 0 0-.584.583 5.255 5.255 0 0 1-5.25 5.25H6.417a5.256 5.256 0 0 1-5.25-5.25.583.583 0 0 0-1.167 0A6.424 6.424 0 0 0 6.417 14h1.166A6.424 6.424 0 0 0 14 7.583.583.583 0 0 0 13.417 7"></path></g><defs><clipPath id="microphone_svg__a"><path d="M0 0h14v14H0z"></path></clipPath></defs></svg>