<svg xmlns="http://www.w3.org/2000/svg" width="16" height="16" viewBox="0 0 512 512" aria-hidden="true" class="$w-[1em] $h-[1em] $fill-current $text-base text-surface-foreground-0"><path d="M426.421 194.526c13.807 0 25 11.193 25 25a195.21 195.21 0 0 1-57.176 138.036 195.22 195.22 0 0 1-113.035 55.565V462h72.264c13.807 0 25 11.193 25 25s-11.193 25-25 25H158.947c-13.807 0-25-11.193-25-25s11.193-25 25-25h72.263v-48.874a195.2 195.2 0 0 1-113.034-55.564A195.21 195.21 0 0 1 61 219.526c0-13.807 11.193-25 25-25s25 11.193 25 25a145.213 145.213 0 0 0 145.211 145.211 145.21 145.21 0 0 0 145.21-145.211c0-13.807 11.193-25 25-25"></path><path fill-rule="evenodd" d="M256.21 0a97.948 97.948 0 0 1 97.947 97.947v121.579a97.948 97.948 0 1 1-195.894 0V97.947A97.945 97.945 0 0 1 256.21 0m0 50a47.95 47.95 0 0 0-47.947 47.947v121.579a47.948 47.948 0 1 0 95.894 0V97.947A47.945 47.945 0 0 0 256.21 50" clip-rule="evenodd"></path></svg>