<svg xmlns="http://www.w3.org/2000/svg" viewBox="0 0 512 512" width="16" height="16" aria-hidden="true" class="$w-[1em] $h-[1em] $fill-current $text-2xs text-white"><g clip-path="url(#ai-filter_svg__a)"><path d="M346.844 354V227c0-13.81 11.185-25 24.989-25s24.989 11.19 24.989 25v127c0 13.81-11.185 25-24.989 25s-24.989-11.19-24.989-25m-107.951 1v-49h-73.967v49c0 13.81-11.185 25-24.989 25s-24.989-11.19-24.989-25V219.5c0-47.97 39.013-87 86.961-87s86.961 39.03 86.961 87V355c0 13.81-11.185 25-24.988 25-13.804 0-24.989-11.19-24.989-25m0-99v-36.5c0-20.4-16.593-37-36.984-37-20.39 0-36.983 16.6-36.983 37V256zM367.295 93.95l28.947 12.77a17.76 17.76 0 0 1 9.086 9.09l12.764 28.96c6.227 14.14 26.278 14.14 32.506 0l12.764-28.96a17.76 17.76 0 0 1 9.086-9.09l28.947-12.77c14.133-6.23 14.133-26.29 0-32.52l-28.947-12.77a17.76 17.76 0 0 1-9.086-9.09l-12.764-28.96c-6.228-14.14-26.279-14.14-32.506 0l-12.764 28.96a17.76 17.76 0 0 1-9.086 9.09l-28.947 12.77c-14.134 6.23-14.134 26.29 0 32.52M486.781 203c-13.803 0-24.988 11.19-24.988 25v199c0 19.3-15.693 35-34.985 35H84.962c-9.356 0-18.142-3.65-24.749-10.26-6.607-6.62-10.245-15.42-10.235-24.77l.34-342C50.337 65.69 66.03 50 85.301 50h196.571c13.804 0 24.989-11.19 24.989-25S295.677 0 281.873 0H85.302C38.502 0 .39 38.09.34 84.92l-.34 342c-.02 22.72 8.806 44.08 24.859 60.16s37.393 24.93 60.103 24.93h341.846c46.849 0 84.962-38.13 84.962-85v-199c0-13.81-11.185-25-24.989-25z"></path></g><defs><clipPath id="ai-filter_svg__a"><path d="M0 0h512v512H0z"></path></clipPath></defs></svg>