<svg xmlns="http://www.w3.org/2000/svg" viewBox="0 0 24 24" width="16" height="16" aria-hidden="true" class="$w-[1em] $h-[1em] $fill-current $text-sm"><path d="M19.781.984H4.171a3.05 3.05 0 0 0-3.046 3.047v15.563a3.05 3.05 0 0 0 3.047 3.047h15.61a3.05 3.05 0 0 0 3.046-3.047V4.03A3.05 3.05 0 0 0 19.781.984m.703 3.047v2.86h-7.312V3.328h6.61c.387 0 .702.316.702.703M4.172 3.328h6.656v11.063h-7.36V4.03c0-.387.316-.703.704-.703m-.703 16.266v-2.86h7.36v3.563H4.171a.704.704 0 0 1-.703-.703m16.312.703h-6.61V9.234h7.313v10.36a.704.704 0 0 1-.703.703"></path></svg>