<svg xmlns="http://www.w3.org/2000/svg" width="16" height="16" viewBox="0 0 24 24" aria-hidden="true" class="$w-[1em] $h-[1em] $fill-current $text-lg size-3.5"><g clip-path="url(#spaces_svg__a)"><path d="M21.514 0h-3.72a2.49 2.49 0 0 0-2.485 2.486v.034a8 8 0 0 0-3.052-.617c-1.714 0-3.12.48-4.2 1.457S6.446 5.589 6.446 7.149c0 1.028.291 1.954.857 2.742.566.789 1.526 1.595 2.863 2.418l.823.497.582.36.755.463c1.731 1.08 2.588 2.211 2.588 3.411q0 1.105-.874 1.852c-.583.497-1.32.736-2.211.736-1.115 0-2.16-.325-3.12-.942v-.875a2.49 2.49 0 0 0-2.486-2.485H2.486A2.46 2.46 0 0 0 0 17.794v3.72A2.487 2.487 0 0 0 2.486 24h3.771a2.433 2.433 0 0 0 2.434-2.434v-.086c.995.394 2.04.6 3.155.6 1.697 0 3.068-.497 4.131-1.474q1.594-1.492 1.594-3.857c0-2.212-1.2-4.046-3.6-5.486l-1.44-.857-.051-.035-.669-.394c-.96-.566-1.662-1.114-2.108-1.628-.429-.515-.652-1.063-.652-1.663 0-.669.292-1.217.892-1.646s1.354-.634 2.263-.634c1.08 0 2.125.325 3.103.925v.823a2.49 2.49 0 0 0 2.485 2.486h3.772A2.433 2.433 0 0 0 24 6.206v-3.72A2.487 2.487 0 0 0 21.514 0M6.36 21.566s-.051.103-.103.103H2.486a.154.154 0 0 1-.155-.155v-3.72c0-.085.069-.154.155-.154h3.72c.085 0 .154.069.154.154zM21.669 6.257s-.052.103-.103.103h-3.772a.154.154 0 0 1-.154-.154v-3.72c0-.086.069-.155.154-.155h3.72c.086 0 .155.069.155.155z"></path></g><defs><clipPath id="spaces_svg__a"><path d="M0 0h24v24H0z"></path></clipPath></defs></svg>