<svg xmlns="http://www.w3.org/2000/svg" viewBox="0 0 512 512" width="16" height="16" aria-hidden="true" class="$w-[1em] $h-[1em] $fill-current $text-sm"><path d="M275 239c-47.7 0-86.5 38.8-86.5 86.5 0 29.1 14.4 54.9 36.5 70.6v104.1c.2 3 1.4 5.9 3.7 8.1l.1.1c4 3.9 10.1 4.7 14.9 2l31-18.1 31 18.1c4.9 2.7 10.9 1.9 14.9-2 2.3-2.2 4.2-5.2 4.4-8.3V396c22.1-15.7 36.5-41.5 36.5-70.5 0-47.7-38.8-86.5-86.5-86.5m0 50c20.1 0 36.5 16.4 36.5 36.5S295.1 362 275 362s-36.5-16.4-36.5-36.5S254.9 289 275 289"></path><path d="M462 123.7v-.1c0-.5-.1-1-.1-1.5 0-.1 0-.3-.1-.4-.1-.5-.1-1-.2-1.5s-.2-1-.4-1.6c0-.1-.1-.3-.1-.4-.1-.5-.3-.9-.4-1.4v-.1l-.6-1.5c-.1-.1-.1-.3-.2-.4-.2-.4-.4-.8-.6-1.3 0-.1-.1-.1-.1-.2-.2-.5-.5-.9-.8-1.4-.1-.1-.2-.3-.3-.4-.3-.4-.5-.8-.8-1.2 0-.1-.1-.1-.1-.2-.3-.4-.7-.8-1-1.3l-.3-.3c-.4-.4-.7-.8-1.1-1.2l-100-100c-.4-.4-.8-.8-1.2-1.1l-.3-.3c-.4-.3-.8-.7-1.3-1l-.1-.1c-.4-.3-.8-.6-1.2-.8-.1-.1-.3-.2-.4-.3-.4-.3-.9-.5-1.3-.8-.1 0-.2-.1-.2-.1l-1.2-.6c-.1-.1-.3-.1-.4-.2-.5-.2-1-.4-1.4-.6-.1 0-.1 0-.2-.1-.4-.2-.9-.3-1.3-.4-.1 0-.3-.1-.4-.1-.5-.1-1-.3-1.5-.4h-.1c-.5-.1-1-.2-1.5-.2-.2 0-.3 0-.5-.1-.5-.1-.9-.1-1.4-.1H115C79.2 0 50 29.2 50 65v362c0 35.8 29.2 65 65 65h60v-50h-60c-8.3 0-15-6.7-15-15V65c0-8.3 6.7-15 15-15h197v75c0 13.8 11.2 25 25 25h75v277c0 8.3-6.7 15-15 15h-22v50h22c35.8 0 65-29.2 65-65V123.7"></path></svg>